<svg xmlns="http://www.w3.org/2000/svg" viewBox="0 0 104 43" style="background-color:#ffffff00" width="104" height="43"><path d="M1 1h102v41H1V1zM0 0v43h104V0H0zm72.1 20.8c0 6.8 4.5 11 10.9 11s10.9-4.2 10.9-11c0-6.5-4.5-10.6-10.9-10.6s-10.9 4.1-10.9 10.6zm3.8 0c0-4.3 3.2-7.7 7.1-7.7 3.9 0 7.1 3.4 7.1 7.7 0 4.6-3.2 8.1-7.1 8.1-3.9 0-7.1-3.5-7.1-8.1zm-25.8.5c0 6.9 4.5 10.5 10.4 10.5 4.1 0 6.5-1.8 6.5-1.8h.1v1.9h2.8v-9.1c0-1.2-.5-1.7-1.7-1.7h-3.4v2.8h1.4c.4 0 .7.3.7.7v1.8s-2.1 2.5-5.7 2.5c-4 0-7.3-3.2-7.3-7.6 0-4.9 3.3-8.2 7.2-8.2 3.4 0 5.7 2.2 5.7 2.2l1.9-2.9s-2.3-2.2-7.7-2.2c-6.5 0-10.9 4.2-10.9 11.1zm-24-.5c0 6.8 4.5 11 10.9 11s10.9-4.2 10.9-11c0-6.5-4.5-10.6-10.9-10.6s-10.9 4.1-10.9 10.6zm3.8 0c0-4.3 3.2-7.7 7.1-7.7 3.9 0 7.1 3.4 7.1 7.7 0 4.6-3.2 8.1-7.1 8.1-3.9 0-7.1-3.5-7.1-8.1zM12.1 30c0 1.3.6 1.8 2 1.8h9.6c1.6 0 2.2-.5 2.2-1.8v-3.2h-3.8v1.4c0 .4-.3.7-.7.7h-4.8c-.4 0-.7-.3-.7-.7V12c0-1.2-.6-1.8-2-1.8h-3.8v2.9h1.3c.5 0 .7.3.7.7V30z"/></svg>