<svg xmlns="http://www.w3.org/2000/svg" xmlns:xlink="http://www.w3.org/1999/xlink" viewBox="0 0 104 43" style="background-color:#ffffff00" version="1.1" xml:space="preserve" x="0px" y="0px" width="104px" height="43px"><g><path d="M 1 1 L 103 1 L 103 42 L 1 42 L 1 1 ZM 0 0 L 0 43 L 104 43 L 104 0 L 0 0 ZM 72.1 20.8 C 72.1 27.6 76.6 31.8 83 31.8 C 89.4 31.8 93.9 27.6 93.9 20.8 C 93.9 14.3 89.4 10.2 83 10.2 C 76.6 10.2 72.1 14.3 72.1 20.8 ZM 75.9 20.8 C 75.9 16.5 79.1 13.1 83 13.1 C 86.9 13.1 90.1 16.5 90.1 20.8 C 90.1 25.4 86.9 28.9 83 28.9 C 79.1 28.9 75.9 25.4 75.9 20.8 ZM 50.1 21.3 C 50.1 28.2 54.6 31.8 60.5 31.8 C 64.6 31.8 67 30 67 30 L 67.1 30 C 67.1 30 67.1 30.4 67.1 30.9 L 67.1 31.9 L 69.9 31.9 L 69.9 22.8 C 69.9 21.6 69.4 21.1 68.2 21.1 L 64.8 21.1 L 64.8 23.9 L 66.2 23.9 C 66.6 23.9 66.9 24.2 66.9 24.6 L 66.9 26.4 C 66.9 26.4 64.8 28.9 61.2 28.9 C 57.2 28.9 53.9 25.7 53.9 21.3 C 53.9 16.4 57.2 13.1 61.1 13.1 C 64.5 13.1 66.8 15.3 66.8 15.3 L 68.7 12.4 C 68.7 12.4 66.4 10.2 61 10.2 C 54.5 10.2 50.1 14.4 50.1 21.3 ZM 26.1 20.8 C 26.1 27.6 30.6 31.8 37 31.8 C 43.4 31.8 47.9 27.6 47.9 20.8 C 47.9 14.3 43.4 10.2 37 10.2 C 30.6 10.2 26.1 14.3 26.1 20.8 ZM 29.9 20.8 C 29.9 16.5 33.1 13.1 37 13.1 C 40.9 13.1 44.1 16.5 44.1 20.8 C 44.1 25.4 40.9 28.9 37 28.9 C 33.1 28.9 29.9 25.4 29.9 20.8 ZM 12.1 30 C 12.1 31.3 12.7 31.8 14.1 31.8 L 23.7 31.8 C 25.3 31.8 25.9 31.3 25.9 30 L 25.9 26.8 L 22.1 26.8 L 22.1 28.2 C 22.1 28.6 21.8 28.9 21.4 28.9 L 16.6 28.9 C 16.2 28.9 15.9 28.6 15.9 28.2 L 15.9 12 C 15.9 10.8 15.3 10.2 13.9 10.2 L 10.1 10.2 L 10.1 13.1 L 11.4 13.1 C 11.9 13.1 12.1 13.4 12.1 13.8 L 12.1 30 Z" fill="#000000"/></g></svg>